<mxfile host="app.diagrams.net" modified="2022-06-30T11:24:33.086Z" agent="5.0 (Windows NT 10.0; WOW64) AppleWebKit/537.36 (KHTML, like Gecko) Chrome/103.0.0.0 Safari/537.36" etag="K8eo2TmKyfZwxcOYERH8" version="20.0.3" type="github">
  <diagram id="8vkd5p8vj978ja_OZnju" name="Page-1">
    <mxGraphModel dx="1210" dy="606" grid="1" gridSize="10" guides="1" tooltips="1" connect="1" arrows="1" fold="1" page="1" pageScale="1" pageWidth="1169" pageHeight="827" math="0" shadow="0">
      <root>
        <mxCell id="0" />
        <mxCell id="1" parent="0" />
      </root>
    </mxGraphModel>
  </diagram>
</mxfile>
